<svg xmlns="http://www.w3.org/2000/svg" xmlns:xlink="http://www.w3.org/1999/xlink" width="500" zoomAndPan="magnify" viewBox="0 0 375 374.999991" height="500" preserveAspectRatio="xMidYMid meet" version="1.0"><defs><g/><clipPath id="0b68910bdb"><path d="M 118 61 L 359.199219 61 L 359.199219 269.6875 L 118 269.6875 Z M 118 61 " clip-rule="nonzero"/></clipPath><clipPath id="9290b44824"><path d="M 359.183594 135.863281 C 359.183594 94.980469 325.925781 61.722656 285.042969 61.722656 C 268.214844 61.722656 251.734375 67.519531 238.632812 78.039062 C 225.738281 88.398438 216.578125 102.929688 212.835938 118.953125 C 211.546875 124.464844 210.894531 130.152344 210.894531 135.863281 L 210.894531 241.59375 L 156.421875 241.59375 C 153.316406 234.769531 146.453125 230.023438 138.464844 230.023438 C 127.574219 230.023438 118.753906 238.851562 118.753906 249.734375 C 118.753906 260.617188 127.582031 269.445312 138.464844 269.445312 C 146.453125 269.445312 153.316406 264.699219 156.421875 257.875 L 227.175781 257.875 L 227.175781 230.042969 C 240.773438 247 261.652344 257.875 285.035156 257.875 C 325.917969 257.875 359.179688 224.617188 359.179688 183.734375 C 359.179688 175.367188 357.78125 167.324219 355.21875 159.8125 C 357.847656 152.125 359.179688 144.089844 359.179688 135.863281 Z M 285.042969 241.59375 C 253.136719 241.59375 227.183594 215.640625 227.183594 183.734375 L 227.183594 135.863281 C 227.183594 131.402344 227.691406 126.957031 228.699219 122.648438 C 234.835938 96.363281 258.003906 78.003906 285.042969 78.003906 C 316.949219 78.003906 342.902344 103.957031 342.902344 135.863281 C 342.902344 136.375 342.894531 136.890625 342.882812 137.402344 C 336.632812 129.621094 328.851562 123.117188 320.003906 118.371094 C 318.707031 108.734375 310.457031 101.300781 300.46875 101.300781 C 289.578125 101.300781 280.757812 110.128906 280.757812 121.011719 C 280.757812 131.898438 289.585938 140.726562 300.46875 140.726562 C 306.242188 140.726562 311.441406 138.238281 315.050781 134.277344 C 331.734375 144.4375 342.902344 162.804688 342.902344 183.726562 C 342.902344 215.632812 316.949219 241.585938 285.042969 241.585938 Z M 285.042969 241.59375 " clip-rule="nonzero"/></clipPath><linearGradient x1="145.289976" gradientTransform="matrix(0.708545, 0, 0, 0.708545, 15.810129, 43.937989)" y1="171.69" x2="484.619994" gradientUnits="userSpaceOnUse" y2="171.69" id="df901913b9"><stop stop-opacity="1" stop-color="rgb(0%, 81.999207%, 96.899414%)" offset="0"/><stop stop-opacity="1" stop-color="rgb(0.131226%, 81.936646%, 96.870422%)" offset="0.015625"/><stop stop-opacity="1" stop-color="rgb(0.393677%, 81.813049%, 96.813965%)" offset="0.03125"/><stop stop-opacity="1" stop-color="rgb(0.657654%, 81.689453%, 96.757507%)" offset="0.046875"/><stop stop-opacity="1" stop-color="rgb(0.921631%, 81.567383%, 96.70105%)" offset="0.0625"/><stop stop-opacity="1" stop-color="rgb(1.185608%, 81.443787%, 96.646118%)" offset="0.078125"/><stop stop-opacity="1" stop-color="rgb(1.451111%, 81.32019%, 96.589661%)" offset="0.09375"/><stop stop-opacity="1" stop-color="rgb(1.715088%, 81.196594%, 96.533203%)" offset="0.109375"/><stop stop-opacity="1" stop-color="rgb(1.979065%, 81.072998%, 96.476746%)" offset="0.125"/><stop stop-opacity="1" stop-color="rgb(2.243042%, 80.949402%, 96.420288%)" offset="0.140625"/><stop stop-opacity="1" stop-color="rgb(2.507019%, 80.825806%, 96.363831%)" offset="0.15625"/><stop stop-opacity="1" stop-color="rgb(2.770996%, 80.702209%, 96.307373%)" offset="0.171875"/><stop stop-opacity="1" stop-color="rgb(3.034973%, 80.578613%, 96.252441%)" offset="0.1875"/><stop stop-opacity="1" stop-color="rgb(3.29895%, 80.455017%, 96.195984%)" offset="0.203125"/><stop stop-opacity="1" stop-color="rgb(3.562927%, 80.332947%, 96.139526%)" offset="0.21875"/><stop stop-opacity="1" stop-color="rgb(3.826904%, 80.209351%, 96.083069%)" offset="0.234375"/><stop stop-opacity="1" stop-color="rgb(4.090881%, 80.085754%, 96.026611%)" offset="0.25"/><stop stop-opacity="1" stop-color="rgb(4.354858%, 79.962158%, 95.970154%)" offset="0.265625"/><stop stop-opacity="1" stop-color="rgb(4.618835%, 79.838562%, 95.913696%)" offset="0.28125"/><stop stop-opacity="1" stop-color="rgb(4.882812%, 79.714966%, 95.858765%)" offset="0.296875"/><stop stop-opacity="1" stop-color="rgb(5.14679%, 79.59137%, 95.802307%)" offset="0.3125"/><stop stop-opacity="1" stop-color="rgb(5.410767%, 79.467773%, 95.74585%)" offset="0.328125"/><stop stop-opacity="1" stop-color="rgb(5.67627%, 79.344177%, 95.689392%)" offset="0.34375"/><stop stop-opacity="1" stop-color="rgb(5.940247%, 79.222107%, 95.632935%)" offset="0.359375"/><stop stop-opacity="1" stop-color="rgb(6.204224%, 79.098511%, 95.576477%)" offset="0.375"/><stop stop-opacity="1" stop-color="rgb(6.468201%, 78.974915%, 95.52002%)" offset="0.390625"/><stop stop-opacity="1" stop-color="rgb(6.732178%, 78.851318%, 95.463562%)" offset="0.40625"/><stop stop-opacity="1" stop-color="rgb(6.996155%, 78.727722%, 95.40863%)" offset="0.421875"/><stop stop-opacity="1" stop-color="rgb(7.260132%, 78.604126%, 95.352173%)" offset="0.4375"/><stop stop-opacity="1" stop-color="rgb(7.524109%, 78.48053%, 95.295715%)" offset="0.453125"/><stop stop-opacity="1" stop-color="rgb(7.788086%, 78.356934%, 95.239258%)" offset="0.46875"/><stop stop-opacity="1" stop-color="rgb(8.052063%, 78.233337%, 95.1828%)" offset="0.484375"/><stop stop-opacity="1" stop-color="rgb(8.31604%, 78.109741%, 95.126343%)" offset="0.5"/><stop stop-opacity="1" stop-color="rgb(8.580017%, 77.987671%, 95.069885%)" offset="0.515625"/><stop stop-opacity="1" stop-color="rgb(8.843994%, 77.864075%, 95.014954%)" offset="0.53125"/><stop stop-opacity="1" stop-color="rgb(9.107971%, 77.740479%, 94.958496%)" offset="0.546875"/><stop stop-opacity="1" stop-color="rgb(9.371948%, 77.616882%, 94.902039%)" offset="0.5625"/><stop stop-opacity="1" stop-color="rgb(9.635925%, 77.493286%, 94.845581%)" offset="0.578125"/><stop stop-opacity="1" stop-color="rgb(9.899902%, 77.36969%, 94.789124%)" offset="0.59375"/><stop stop-opacity="1" stop-color="rgb(10.165405%, 77.246094%, 94.732666%)" offset="0.609375"/><stop stop-opacity="1" stop-color="rgb(10.429382%, 77.122498%, 94.676208%)" offset="0.625"/><stop stop-opacity="1" stop-color="rgb(10.693359%, 76.998901%, 94.619751%)" offset="0.640625"/><stop stop-opacity="1" stop-color="rgb(10.957336%, 76.875305%, 94.564819%)" offset="0.65625"/><stop stop-opacity="1" stop-color="rgb(11.221313%, 76.753235%, 94.508362%)" offset="0.671875"/><stop stop-opacity="1" stop-color="rgb(11.485291%, 76.629639%, 94.451904%)" offset="0.6875"/><stop stop-opacity="1" stop-color="rgb(11.749268%, 76.506042%, 94.395447%)" offset="0.703125"/><stop stop-opacity="1" stop-color="rgb(12.013245%, 76.382446%, 94.338989%)" offset="0.71875"/><stop stop-opacity="1" stop-color="rgb(12.277222%, 76.25885%, 94.282532%)" offset="0.734375"/><stop stop-opacity="1" stop-color="rgb(12.541199%, 76.135254%, 94.226074%)" offset="0.75"/><stop stop-opacity="1" stop-color="rgb(12.805176%, 76.011658%, 94.171143%)" offset="0.765625"/><stop stop-opacity="1" stop-color="rgb(13.069153%, 75.888062%, 94.114685%)" offset="0.78125"/><stop stop-opacity="1" stop-color="rgb(13.33313%, 75.764465%, 94.058228%)" offset="0.796875"/><stop stop-opacity="1" stop-color="rgb(13.597107%, 75.640869%, 94.00177%)" offset="0.8125"/><stop stop-opacity="1" stop-color="rgb(13.861084%, 75.518799%, 93.945312%)" offset="0.828125"/><stop stop-opacity="1" stop-color="rgb(14.125061%, 75.395203%, 93.888855%)" offset="0.84375"/><stop stop-opacity="1" stop-color="rgb(14.390564%, 75.271606%, 93.832397%)" offset="0.859375"/><stop stop-opacity="1" stop-color="rgb(14.654541%, 75.14801%, 93.777466%)" offset="0.875"/><stop stop-opacity="1" stop-color="rgb(14.918518%, 75.024414%, 93.721008%)" offset="0.890625"/><stop stop-opacity="1" stop-color="rgb(15.182495%, 74.900818%, 93.664551%)" offset="0.90625"/><stop stop-opacity="1" stop-color="rgb(15.446472%, 74.777222%, 93.608093%)" offset="0.921875"/><stop stop-opacity="1" stop-color="rgb(15.710449%, 74.653625%, 93.551636%)" offset="0.9375"/><stop stop-opacity="1" stop-color="rgb(15.974426%, 74.530029%, 93.495178%)" offset="0.953125"/><stop stop-opacity="1" stop-color="rgb(16.238403%, 74.406433%, 93.438721%)" offset="0.96875"/><stop stop-opacity="1" stop-color="rgb(16.50238%, 74.284363%, 93.382263%)" offset="0.984375"/><stop stop-opacity="1" stop-color="rgb(16.766357%, 74.160767%, 93.327332%)" offset="1"/></linearGradient><clipPath id="28ddb16c61"><path d="M 15.699219 43.9375 L 230 43.9375 L 230 269.6875 L 15.699219 269.6875 Z M 15.699219 43.9375 " clip-rule="nonzero"/></clipPath><clipPath id="e7672d3e99"><path d="M 89.570312 230.023438 C 83.222656 230.023438 77.582031 233.027344 73.972656 237.691406 C 49.820312 230.738281 32.09375 208.441406 32.09375 182.074219 C 32.09375 150.171875 58.046875 124.214844 89.953125 124.214844 C 103.40625 124.214844 116.238281 128.890625 126.429688 137.167969 C 125.402344 139.554688 124.828125 142.191406 124.828125 144.960938 C 124.828125 155.851562 133.65625 164.675781 144.539062 164.675781 C 155.421875 164.675781 164.25 155.84375 164.25 144.960938 C 164.25 134.078125 155.421875 125.25 144.539062 125.25 C 142.476562 125.25 140.492188 125.570312 138.621094 126.15625 C 131.761719 120.191406 123.882812 115.542969 115.382812 112.441406 C 121.355469 82.945312 147.195312 61.425781 177.976562 61.425781 C 182.042969 61.425781 186.058594 61.800781 189.992188 62.550781 C 189.96875 62.917969 189.957031 63.28125 189.957031 63.65625 C 189.957031 74.546875 198.785156 83.367188 209.667969 83.367188 C 220.550781 83.367188 229.378906 74.539062 229.378906 63.65625 C 229.378906 52.773438 220.558594 43.9375 209.675781 43.9375 C 205.351562 43.9375 201.355469 45.332031 198.113281 47.691406 C 191.570312 46 184.832031 45.140625 177.980469 45.140625 C 157.964844 45.140625 138.792969 52.5625 124.003906 66.03125 C 111.519531 77.402344 103.03125 92.269531 99.566406 108.5625 C 96.398438 108.152344 93.199219 107.933594 89.960938 107.933594 C 49.070312 107.933594 15.808594 141.191406 15.808594 182.074219 C 15.808594 216.128906 38.894531 244.894531 70.234375 253.554688 C 72.011719 262.617188 79.988281 269.453125 89.578125 269.453125 C 100.46875 269.453125 109.289062 260.625 109.289062 249.742188 C 109.289062 238.859375 100.460938 230.03125 89.578125 230.03125 Z M 89.570312 230.023438 " clip-rule="nonzero"/></clipPath><linearGradient x1="-0.000000703915" gradientTransform="matrix(0.708545, 0, 0, 0.708545, 15.810129, 43.937989)" y1="159.139999" x2="301.419976" gradientUnits="userSpaceOnUse" y2="159.139999" id="4305004cd4"><stop stop-opacity="1" stop-color="rgb(0%, 81.999207%, 96.899414%)" offset="0"/><stop stop-opacity="1" stop-color="rgb(0.131226%, 81.936646%, 96.870422%)" offset="0.015625"/><stop stop-opacity="1" stop-color="rgb(0.395203%, 81.813049%, 96.813965%)" offset="0.03125"/><stop stop-opacity="1" stop-color="rgb(0.65918%, 81.689453%, 96.757507%)" offset="0.046875"/><stop stop-opacity="1" stop-color="rgb(0.923157%, 81.565857%, 96.70105%)" offset="0.0625"/><stop stop-opacity="1" stop-color="rgb(1.187134%, 81.443787%, 96.646118%)" offset="0.078125"/><stop stop-opacity="1" stop-color="rgb(1.451111%, 81.32019%, 96.589661%)" offset="0.09375"/><stop stop-opacity="1" stop-color="rgb(1.715088%, 81.196594%, 96.533203%)" offset="0.109375"/><stop stop-opacity="1" stop-color="rgb(1.979065%, 81.072998%, 96.476746%)" offset="0.125"/><stop stop-opacity="1" stop-color="rgb(2.243042%, 80.949402%, 96.420288%)" offset="0.140625"/><stop stop-opacity="1" stop-color="rgb(2.507019%, 80.825806%, 96.363831%)" offset="0.15625"/><stop stop-opacity="1" stop-color="rgb(2.770996%, 80.702209%, 96.307373%)" offset="0.171875"/><stop stop-opacity="1" stop-color="rgb(3.034973%, 80.578613%, 96.252441%)" offset="0.1875"/><stop stop-opacity="1" stop-color="rgb(3.29895%, 80.455017%, 96.195984%)" offset="0.203125"/><stop stop-opacity="1" stop-color="rgb(3.562927%, 80.332947%, 96.139526%)" offset="0.21875"/><stop stop-opacity="1" stop-color="rgb(3.826904%, 80.209351%, 96.083069%)" offset="0.234375"/><stop stop-opacity="1" stop-color="rgb(4.090881%, 80.085754%, 96.026611%)" offset="0.25"/><stop stop-opacity="1" stop-color="rgb(4.354858%, 79.962158%, 95.970154%)" offset="0.265625"/><stop stop-opacity="1" stop-color="rgb(4.618835%, 79.838562%, 95.913696%)" offset="0.28125"/><stop stop-opacity="1" stop-color="rgb(4.882812%, 79.714966%, 95.857239%)" offset="0.296875"/><stop stop-opacity="1" stop-color="rgb(5.148315%, 79.59137%, 95.802307%)" offset="0.3125"/><stop stop-opacity="1" stop-color="rgb(5.412292%, 79.467773%, 95.74585%)" offset="0.328125"/><stop stop-opacity="1" stop-color="rgb(5.67627%, 79.344177%, 95.689392%)" offset="0.34375"/><stop stop-opacity="1" stop-color="rgb(5.940247%, 79.220581%, 95.632935%)" offset="0.359375"/><stop stop-opacity="1" stop-color="rgb(6.204224%, 79.098511%, 95.576477%)" offset="0.375"/><stop stop-opacity="1" stop-color="rgb(6.468201%, 78.974915%, 95.52002%)" offset="0.390625"/><stop stop-opacity="1" stop-color="rgb(6.732178%, 78.851318%, 95.463562%)" offset="0.40625"/><stop stop-opacity="1" stop-color="rgb(6.996155%, 78.727722%, 95.40863%)" offset="0.421875"/><stop stop-opacity="1" stop-color="rgb(7.260132%, 78.604126%, 95.352173%)" offset="0.4375"/><stop stop-opacity="1" stop-color="rgb(7.524109%, 78.48053%, 95.295715%)" offset="0.453125"/><stop stop-opacity="1" stop-color="rgb(7.788086%, 78.356934%, 95.239258%)" offset="0.46875"/><stop stop-opacity="1" stop-color="rgb(8.052063%, 78.233337%, 95.1828%)" offset="0.484375"/><stop stop-opacity="1" stop-color="rgb(8.31604%, 78.109741%, 95.126343%)" offset="0.5"/><stop stop-opacity="1" stop-color="rgb(8.580017%, 77.987671%, 95.069885%)" offset="0.515625"/><stop stop-opacity="1" stop-color="rgb(8.843994%, 77.864075%, 95.014954%)" offset="0.53125"/><stop stop-opacity="1" stop-color="rgb(9.107971%, 77.740479%, 94.958496%)" offset="0.546875"/><stop stop-opacity="1" stop-color="rgb(9.371948%, 77.616882%, 94.902039%)" offset="0.5625"/><stop stop-opacity="1" stop-color="rgb(9.635925%, 77.493286%, 94.845581%)" offset="0.578125"/><stop stop-opacity="1" stop-color="rgb(9.899902%, 77.36969%, 94.789124%)" offset="0.59375"/><stop stop-opacity="1" stop-color="rgb(10.163879%, 77.246094%, 94.732666%)" offset="0.609375"/><stop stop-opacity="1" stop-color="rgb(10.429382%, 77.122498%, 94.676208%)" offset="0.625"/><stop stop-opacity="1" stop-color="rgb(10.693359%, 76.998901%, 94.621277%)" offset="0.640625"/><stop stop-opacity="1" stop-color="rgb(10.957336%, 76.876831%, 94.564819%)" offset="0.65625"/><stop stop-opacity="1" stop-color="rgb(11.221313%, 76.753235%, 94.508362%)" offset="0.671875"/><stop stop-opacity="1" stop-color="rgb(11.485291%, 76.629639%, 94.451904%)" offset="0.6875"/><stop stop-opacity="1" stop-color="rgb(11.749268%, 76.506042%, 94.395447%)" offset="0.703125"/><stop stop-opacity="1" stop-color="rgb(12.013245%, 76.382446%, 94.338989%)" offset="0.71875"/><stop stop-opacity="1" stop-color="rgb(12.277222%, 76.25885%, 94.282532%)" offset="0.734375"/><stop stop-opacity="1" stop-color="rgb(12.541199%, 76.135254%, 94.226074%)" offset="0.75"/><stop stop-opacity="1" stop-color="rgb(12.805176%, 76.011658%, 94.171143%)" offset="0.765625"/><stop stop-opacity="1" stop-color="rgb(13.069153%, 75.888062%, 94.114685%)" offset="0.78125"/><stop stop-opacity="1" stop-color="rgb(13.33313%, 75.764465%, 94.058228%)" offset="0.796875"/><stop stop-opacity="1" stop-color="rgb(13.597107%, 75.642395%, 94.00177%)" offset="0.8125"/><stop stop-opacity="1" stop-color="rgb(13.861084%, 75.518799%, 93.945312%)" offset="0.828125"/><stop stop-opacity="1" stop-color="rgb(14.125061%, 75.395203%, 93.888855%)" offset="0.84375"/><stop stop-opacity="1" stop-color="rgb(14.389038%, 75.271606%, 93.832397%)" offset="0.859375"/><stop stop-opacity="1" stop-color="rgb(14.653015%, 75.14801%, 93.777466%)" offset="0.875"/><stop stop-opacity="1" stop-color="rgb(14.916992%, 75.024414%, 93.721008%)" offset="0.890625"/><stop stop-opacity="1" stop-color="rgb(15.180969%, 74.900818%, 93.664551%)" offset="0.90625"/><stop stop-opacity="1" stop-color="rgb(15.444946%, 74.777222%, 93.608093%)" offset="0.921875"/><stop stop-opacity="1" stop-color="rgb(15.710449%, 74.653625%, 93.551636%)" offset="0.9375"/><stop stop-opacity="1" stop-color="rgb(15.974426%, 74.531555%, 93.495178%)" offset="0.953125"/><stop stop-opacity="1" stop-color="rgb(16.238403%, 74.407959%, 93.438721%)" offset="0.96875"/><stop stop-opacity="1" stop-color="rgb(16.50238%, 74.284363%, 93.383789%)" offset="0.984375"/><stop stop-opacity="1" stop-color="rgb(16.766357%, 74.160767%, 93.327332%)" offset="1"/></linearGradient></defs><rect x="-37.5" width="450" fill="transparent" y="-37.499999" height="449.999989" fill-opacity="1"/><rect x="-37.5" width="450" fill="transparent" y="-37.499999" height="449.999989" fill-opacity="1"/><g clip-path="url(#0b68910bdb)"><g clip-path="url(#9290b44824)"><path fill="url(#df901913b9)" d="M 118.753906 61.722656 L 118.753906 269.445312 L 359.183594 269.445312 L 359.183594 61.722656 Z M 118.753906 61.722656 " fill-rule="nonzero"/></g></g><g clip-path="url(#28ddb16c61)"><g clip-path="url(#e7672d3e99)"><path fill="url(#4305004cd4)" d="M 15.808594 43.9375 L 15.808594 269.453125 L 229.378906 269.453125 L 229.378906 43.9375 Z M 15.808594 43.9375 " fill-rule="nonzero"/></g></g><g fill="#2bbdee" fill-opacity="1"><g transform="translate(35.504319, 330.904385)"><g><path d="M 2.3125 -31.078125 L 15.625 -31.078125 C 17.519531 -31.078125 19.132812 -30.722656 20.46875 -30.015625 C 21.800781 -29.304688 22.789062 -28.351562 23.4375 -27.15625 C 24.09375 -25.957031 24.421875 -24.632812 24.421875 -23.1875 C 24.421875 -21.4375 23.976562 -20.003906 23.09375 -18.890625 C 22.207031 -17.785156 21.171875 -17.066406 19.984375 -16.734375 L 19.984375 -16.4375 C 20.867188 -16.3125 21.789062 -15.96875 22.75 -15.40625 C 23.71875 -14.84375 24.539062 -14.019531 25.21875 -12.9375 C 25.90625 -11.863281 26.25 -10.554688 26.25 -9.015625 C 26.25 -7.535156 25.914062 -6.097656 25.25 -4.703125 C 24.582031 -3.316406 23.519531 -2.175781 22.0625 -1.28125 C 20.613281 -0.394531 18.8125 0.046875 16.65625 0.046875 L 2.3125 0.046875 Z M 13.546875 -18.421875 C 14.753906 -18.421875 15.785156 -18.703125 16.640625 -19.265625 C 17.503906 -19.828125 17.9375 -20.757812 17.9375 -22.0625 C 17.9375 -23.34375 17.5 -24.253906 16.625 -24.796875 C 15.75 -25.347656 14.722656 -25.625 13.546875 -25.625 L 9.109375 -25.625 L 9.109375 -18.421875 Z M 15.09375 -5.46875 C 16.3125 -5.46875 17.378906 -5.757812 18.296875 -6.34375 C 19.210938 -6.9375 19.671875 -7.972656 19.671875 -9.453125 C 19.671875 -10.910156 19.203125 -11.945312 18.265625 -12.5625 C 17.335938 -13.1875 16.28125 -13.5 15.09375 -13.5 L 9.109375 -13.5 L 9.109375 -5.46875 Z M 15.09375 -5.46875 "/></g></g></g><g fill="#2bbdee" fill-opacity="1"><g transform="translate(63.206662, 330.904385)"><g><path d="M 19.984375 -7.1875 L 10.03125 -7.1875 L 7.8125 0 L 0.796875 0 L 11.859375 -31.078125 L 18.296875 -31.078125 L 29.265625 0 L 22.25 0 Z M 18.296875 -12.484375 L 15.09375 -22.515625 L 14.828125 -22.515625 L 11.71875 -12.484375 Z M 18.296875 -12.484375 "/></g></g></g><g fill="#2bbdee" fill-opacity="1"><g transform="translate(93.084353, 330.904385)"><g><path d="M 2.3125 -31.125 L 14.5625 -31.125 C 17.3125 -31.125 19.738281 -30.507812 21.84375 -29.28125 C 23.945312 -28.050781 25.582031 -26.273438 26.75 -23.953125 C 27.925781 -21.628906 28.515625 -18.851562 28.515625 -15.625 C 28.515625 -12.34375 27.921875 -9.53125 26.734375 -7.1875 C 25.546875 -4.851562 23.894531 -3.078125 21.78125 -1.859375 C 19.664062 -0.648438 17.226562 -0.046875 14.46875 -0.046875 L 2.3125 -0.046875 Z M 13.1875 -6.265625 C 15.613281 -6.265625 17.535156 -6.957031 18.953125 -8.34375 C 20.378906 -9.738281 21.09375 -12.164062 21.09375 -15.625 C 21.09375 -19.09375 20.390625 -21.519531 18.984375 -22.90625 C 17.578125 -24.300781 15.644531 -25 13.1875 -25 L 9.015625 -25 L 9.015625 -6.265625 Z M 13.1875 -6.265625 "/></g></g></g><g fill="#2bbdee" fill-opacity="1"><g transform="translate(123.139634, 330.904385)"><g><path d="M 15.28125 0.40625 C 12.375 0.40625 9.90625 -0.347656 7.875 -1.859375 C 5.851562 -3.367188 4.335938 -5.335938 3.328125 -7.765625 C 2.328125 -10.191406 1.828125 -12.785156 1.828125 -15.546875 C 1.828125 -18.390625 2.347656 -21.035156 3.390625 -23.484375 C 4.441406 -25.941406 6.035156 -27.925781 8.171875 -29.4375 C 10.304688 -30.945312 12.910156 -31.703125 15.984375 -31.703125 C 19.503906 -31.703125 22.394531 -30.71875 24.65625 -28.75 C 26.925781 -26.78125 28.519531 -24.210938 29.4375 -21.046875 L 22.15625 -21.046875 C 21.769531 -22.441406 21.054688 -23.550781 20.015625 -24.375 C 18.984375 -25.207031 17.65625 -25.625 16.03125 -25.625 C 13.6875 -25.625 11.894531 -24.691406 10.65625 -22.828125 C 9.414062 -20.960938 8.796875 -18.472656 8.796875 -15.359375 C 8.796875 -12.109375 9.457031 -9.585938 10.78125 -7.796875 C 12.113281 -6.003906 13.984375 -5.109375 16.390625 -5.109375 C 18.460938 -5.109375 20.035156 -5.742188 21.109375 -7.015625 C 22.191406 -8.285156 22.75 -9.78125 22.78125 -11.5 L 22.78125 -12.078125 L 16.96875 -12.078125 L 16.96875 -17 L 29.578125 -17 L 29.578125 0 L 24.46875 0 L 24.46875 -4.390625 L 24.109375 -4.390625 C 22.367188 -1.191406 19.425781 0.40625 15.28125 0.40625 Z M 15.28125 0.40625 "/></g></g></g><g fill="#2bbdee" fill-opacity="1"><g transform="translate(154.970699, 330.904385)"><g><path d="M 19.984375 -7.1875 L 10.03125 -7.1875 L 7.8125 0 L 0.796875 0 L 11.859375 -31.078125 L 18.296875 -31.078125 L 29.265625 0 L 22.25 0 Z M 18.296875 -12.484375 L 15.09375 -22.515625 L 14.828125 -22.515625 L 11.71875 -12.484375 Z M 18.296875 -12.484375 "/></g></g></g><g fill="#2bbdee" fill-opacity="1"><g transform="translate(184.84839, 330.904385)"><g><path d="M 24.78125 -25.046875 L 16.609375 -25.046875 L 16.609375 0 L 9.71875 0 L 9.71875 -25.046875 L 1.546875 -25.046875 L 1.546875 -31.078125 L 24.78125 -31.078125 Z M 24.78125 -25.046875 "/></g></g></g><g fill="#2bbdee" fill-opacity="1"><g transform="translate(211.218895, 330.904385)"><g><path d="M 9.28125 -25.046875 L 9.28125 -18.421875 L 21.09375 -18.421875 L 21.09375 -13.0625 L 9.28125 -13.0625 L 9.28125 -6.046875 L 23.3125 -6.046875 L 23.3125 0 L 2.3125 0 L 2.3125 -31.078125 L 23.3125 -31.078125 L 23.3125 -25.046875 Z M 9.28125 -25.046875 "/></g></g></g><g fill="#2bbdee" fill-opacity="1"><g transform="translate(236.346347, 330.904385)"><g><path d="M 0.4375 -31.078125 L 7.375 -31.078125 L 12.25 -9.140625 L 12.515625 -9.140625 L 19.09375 -31.078125 L 25.140625 -31.078125 L 31.703125 -9.140625 L 31.96875 -9.140625 L 36.90625 -31.078125 L 43.828125 -31.078125 L 35.921875 0.046875 L 27.75 0.046875 L 22.25 -18.609375 L 21.984375 -18.609375 L 16.46875 0.046875 L 8.296875 0.046875 Z M 0.4375 -31.078125 "/></g></g></g><g fill="#2bbdee" fill-opacity="1"><g transform="translate(280.607959, 330.904385)"><g><path d="M 19.984375 -7.1875 L 10.03125 -7.1875 L 7.8125 0 L 0.796875 0 L 11.859375 -31.078125 L 18.296875 -31.078125 L 29.265625 0 L 22.25 0 Z M 18.296875 -12.484375 L 15.09375 -22.515625 L 14.828125 -22.515625 L 11.71875 -12.484375 Z M 18.296875 -12.484375 "/></g></g></g><g fill="#2bbdee" fill-opacity="1"><g transform="translate(310.48565, 330.904385)"><g><path d="M 11.1875 0 L 11.1875 -10.609375 L 0.984375 -31.078125 L 8.171875 -31.078125 L 14.515625 -17.546875 L 14.75 -17.546875 L 21.09375 -31.078125 L 28.28125 -31.078125 L 18.078125 -10.609375 L 18.078125 0 Z M 11.1875 0 "/></g></g></g></svg>