<svg xmlns="http://www.w3.org/2000/svg" xmlns:xlink="http://www.w3.org/1999/xlink" width="500" zoomAndPan="magnify" viewBox="0 0 375 374.999991" height="500" preserveAspectRatio="xMidYMid meet" version="1.0"><defs><g/><clipPath id="e4d807a411"><path d="M 141 67 L 268.375 67 L 268.375 176.898438 L 141 176.898438 Z M 141 67 " clip-rule="nonzero"/></clipPath><clipPath id="8b089ec938"><path d="M 268.644531 106.847656 C 268.644531 85.300781 251.117188 67.773438 229.570312 67.773438 C 220.703125 67.773438 212.015625 70.828125 205.113281 76.371094 C 198.316406 81.832031 193.488281 89.492188 191.515625 97.933594 C 190.835938 100.839844 190.492188 103.835938 190.492188 106.847656 L 190.492188 162.570312 L 161.785156 162.570312 C 160.148438 158.972656 156.53125 156.46875 152.320312 156.46875 C 146.582031 156.46875 141.933594 161.125 141.933594 166.859375 C 141.933594 172.59375 146.585938 177.246094 152.320312 177.246094 C 156.53125 177.246094 160.148438 174.746094 161.785156 171.148438 L 199.074219 171.148438 L 199.074219 156.480469 C 206.238281 165.417969 217.246094 171.148438 229.566406 171.148438 C 251.113281 171.148438 268.640625 153.621094 268.640625 132.074219 C 268.640625 127.664062 267.90625 123.425781 266.554688 119.46875 C 267.941406 115.417969 268.640625 111.183594 268.640625 106.847656 Z M 229.570312 162.570312 C 212.757812 162.570312 199.078125 148.890625 199.078125 132.074219 L 199.078125 106.847656 C 199.078125 104.496094 199.347656 102.152344 199.875 99.882812 C 203.109375 86.027344 215.320312 76.355469 229.570312 76.355469 C 246.386719 76.355469 260.0625 90.03125 260.0625 106.847656 C 260.0625 107.117188 260.058594 107.386719 260.054688 107.65625 C 256.757812 103.558594 252.660156 100.128906 247.996094 97.628906 C 247.3125 92.546875 242.964844 88.632812 237.699219 88.632812 C 231.960938 88.632812 227.3125 93.285156 227.3125 99.019531 C 227.3125 104.753906 231.964844 109.410156 237.699219 109.410156 C 240.742188 109.410156 243.484375 108.097656 245.386719 106.011719 C 254.179688 111.367188 260.0625 121.042969 260.0625 132.070312 C 260.0625 148.886719 246.386719 162.566406 229.570312 162.566406 Z M 229.570312 162.570312 " clip-rule="nonzero"/></clipPath><linearGradient x1="145.289973" gradientTransform="matrix(0.373418, 0, 0, 0.373418, 87.679438, 58.399689)" y1="171.69" x2="483.891474" gradientUnits="userSpaceOnUse" y2="171.69" id="c736dbb9f6"><stop stop-opacity="1" stop-color="rgb(0%, 81.999207%, 96.899414%)" offset="0"/><stop stop-opacity="1" stop-color="rgb(0.131226%, 81.936646%, 96.870422%)" offset="0.015625"/><stop stop-opacity="1" stop-color="rgb(0.393677%, 81.814575%, 96.813965%)" offset="0.03125"/><stop stop-opacity="1" stop-color="rgb(0.657654%, 81.690979%, 96.759033%)" offset="0.046875"/><stop stop-opacity="1" stop-color="rgb(0.920105%, 81.567383%, 96.702576%)" offset="0.0625"/><stop stop-opacity="1" stop-color="rgb(1.184082%, 81.445312%, 96.646118%)" offset="0.078125"/><stop stop-opacity="1" stop-color="rgb(1.448059%, 81.321716%, 96.589661%)" offset="0.09375"/><stop stop-opacity="1" stop-color="rgb(1.71051%, 81.19812%, 96.533203%)" offset="0.109375"/><stop stop-opacity="1" stop-color="rgb(1.974487%, 81.074524%, 96.478271%)" offset="0.125"/><stop stop-opacity="1" stop-color="rgb(2.238464%, 80.952454%, 96.421814%)" offset="0.140625"/><stop stop-opacity="1" stop-color="rgb(2.500916%, 80.828857%, 96.365356%)" offset="0.15625"/><stop stop-opacity="1" stop-color="rgb(2.764893%, 80.705261%, 96.308899%)" offset="0.171875"/><stop stop-opacity="1" stop-color="rgb(3.02887%, 80.581665%, 96.253967%)" offset="0.1875"/><stop stop-opacity="1" stop-color="rgb(3.291321%, 80.459595%, 96.19751%)" offset="0.203125"/><stop stop-opacity="1" stop-color="rgb(3.555298%, 80.335999%, 96.141052%)" offset="0.21875"/><stop stop-opacity="1" stop-color="rgb(3.819275%, 80.212402%, 96.084595%)" offset="0.234375"/><stop stop-opacity="1" stop-color="rgb(4.083252%, 80.090332%, 96.028137%)" offset="0.25"/><stop stop-opacity="1" stop-color="rgb(4.345703%, 79.966736%, 95.973206%)" offset="0.265625"/><stop stop-opacity="1" stop-color="rgb(4.60968%, 79.84314%, 95.916748%)" offset="0.28125"/><stop stop-opacity="1" stop-color="rgb(4.873657%, 79.719543%, 95.860291%)" offset="0.296875"/><stop stop-opacity="1" stop-color="rgb(5.136108%, 79.597473%, 95.803833%)" offset="0.3125"/><stop stop-opacity="1" stop-color="rgb(5.400085%, 79.473877%, 95.747375%)" offset="0.328125"/><stop stop-opacity="1" stop-color="rgb(5.664062%, 79.350281%, 95.692444%)" offset="0.34375"/><stop stop-opacity="1" stop-color="rgb(5.926514%, 79.22821%, 95.635986%)" offset="0.359375"/><stop stop-opacity="1" stop-color="rgb(6.190491%, 79.104614%, 95.579529%)" offset="0.375"/><stop stop-opacity="1" stop-color="rgb(6.454468%, 78.981018%, 95.523071%)" offset="0.390625"/><stop stop-opacity="1" stop-color="rgb(6.716919%, 78.857422%, 95.46814%)" offset="0.40625"/><stop stop-opacity="1" stop-color="rgb(6.980896%, 78.735352%, 95.411682%)" offset="0.421875"/><stop stop-opacity="1" stop-color="rgb(7.244873%, 78.611755%, 95.355225%)" offset="0.4375"/><stop stop-opacity="1" stop-color="rgb(7.507324%, 78.488159%, 95.298767%)" offset="0.453125"/><stop stop-opacity="1" stop-color="rgb(7.771301%, 78.364563%, 95.24231%)" offset="0.46875"/><stop stop-opacity="1" stop-color="rgb(8.035278%, 78.242493%, 95.187378%)" offset="0.484375"/><stop stop-opacity="1" stop-color="rgb(8.299255%, 78.118896%, 95.13092%)" offset="0.5"/><stop stop-opacity="1" stop-color="rgb(8.561707%, 77.9953%, 95.074463%)" offset="0.515625"/><stop stop-opacity="1" stop-color="rgb(8.825684%, 77.87323%, 95.018005%)" offset="0.53125"/><stop stop-opacity="1" stop-color="rgb(9.089661%, 77.749634%, 94.961548%)" offset="0.546875"/><stop stop-opacity="1" stop-color="rgb(9.352112%, 77.626038%, 94.906616%)" offset="0.5625"/><stop stop-opacity="1" stop-color="rgb(9.616089%, 77.502441%, 94.850159%)" offset="0.578125"/><stop stop-opacity="1" stop-color="rgb(9.880066%, 77.380371%, 94.793701%)" offset="0.59375"/><stop stop-opacity="1" stop-color="rgb(10.142517%, 77.256775%, 94.737244%)" offset="0.609375"/><stop stop-opacity="1" stop-color="rgb(10.406494%, 77.133179%, 94.682312%)" offset="0.625"/><stop stop-opacity="1" stop-color="rgb(10.670471%, 77.009583%, 94.625854%)" offset="0.640625"/><stop stop-opacity="1" stop-color="rgb(10.932922%, 76.887512%, 94.569397%)" offset="0.65625"/><stop stop-opacity="1" stop-color="rgb(11.196899%, 76.763916%, 94.512939%)" offset="0.671875"/><stop stop-opacity="1" stop-color="rgb(11.460876%, 76.64032%, 94.456482%)" offset="0.6875"/><stop stop-opacity="1" stop-color="rgb(11.724854%, 76.51825%, 94.40155%)" offset="0.703125"/><stop stop-opacity="1" stop-color="rgb(11.987305%, 76.394653%, 94.345093%)" offset="0.71875"/><stop stop-opacity="1" stop-color="rgb(12.251282%, 76.271057%, 94.288635%)" offset="0.734375"/><stop stop-opacity="1" stop-color="rgb(12.515259%, 76.147461%, 94.232178%)" offset="0.75"/><stop stop-opacity="1" stop-color="rgb(12.77771%, 76.025391%, 94.17572%)" offset="0.765625"/><stop stop-opacity="1" stop-color="rgb(13.041687%, 75.901794%, 94.120789%)" offset="0.78125"/><stop stop-opacity="1" stop-color="rgb(13.305664%, 75.778198%, 94.064331%)" offset="0.796875"/><stop stop-opacity="1" stop-color="rgb(13.568115%, 75.654602%, 94.007874%)" offset="0.8125"/><stop stop-opacity="1" stop-color="rgb(13.832092%, 75.532532%, 93.951416%)" offset="0.828125"/><stop stop-opacity="1" stop-color="rgb(14.096069%, 75.408936%, 93.896484%)" offset="0.84375"/><stop stop-opacity="1" stop-color="rgb(14.358521%, 75.285339%, 93.840027%)" offset="0.859375"/><stop stop-opacity="1" stop-color="rgb(14.622498%, 75.163269%, 93.783569%)" offset="0.875"/><stop stop-opacity="1" stop-color="rgb(14.886475%, 75.039673%, 93.727112%)" offset="0.890625"/><stop stop-opacity="1" stop-color="rgb(15.148926%, 74.916077%, 93.670654%)" offset="0.90625"/><stop stop-opacity="1" stop-color="rgb(15.412903%, 74.79248%, 93.615723%)" offset="0.921875"/><stop stop-opacity="1" stop-color="rgb(15.67688%, 74.67041%, 93.559265%)" offset="0.9375"/><stop stop-opacity="1" stop-color="rgb(15.940857%, 74.546814%, 93.502808%)" offset="0.953125"/><stop stop-opacity="1" stop-color="rgb(16.203308%, 74.423218%, 93.44635%)" offset="0.96875"/><stop stop-opacity="1" stop-color="rgb(16.467285%, 74.301147%, 93.389893%)" offset="0.984375"/><stop stop-opacity="1" stop-color="rgb(16.731262%, 74.177551%, 93.334961%)" offset="1"/></linearGradient><clipPath id="098901b70f"><path d="M 87.625 58.398438 L 201 58.398438 L 201 176.898438 L 87.625 176.898438 Z M 87.625 58.398438 " clip-rule="nonzero"/></clipPath><clipPath id="beb3c9230d"><path d="M 126.550781 156.46875 C 123.207031 156.46875 120.234375 158.054688 118.332031 160.511719 C 105.601562 156.847656 96.261719 145.097656 96.261719 131.203125 C 96.261719 114.386719 109.9375 100.707031 126.753906 100.707031 C 133.84375 100.707031 140.609375 103.171875 145.976562 107.535156 C 145.4375 108.792969 145.132812 110.179688 145.132812 111.640625 C 145.132812 117.382812 149.785156 122.03125 155.523438 122.03125 C 161.257812 122.03125 165.910156 117.378906 165.910156 111.640625 C 165.910156 105.90625 161.257812 101.253906 155.523438 101.253906 C 154.433594 101.253906 153.390625 101.421875 152.402344 101.730469 C 148.789062 98.585938 144.636719 96.136719 140.15625 94.5 C 143.304688 78.957031 156.921875 67.617188 173.144531 67.617188 C 175.285156 67.617188 177.40625 67.8125 179.476562 68.210938 C 179.464844 68.402344 179.457031 68.59375 179.457031 68.792969 C 179.457031 74.53125 184.109375 79.179688 189.847656 79.179688 C 195.582031 79.179688 200.234375 74.527344 200.234375 68.792969 C 200.234375 63.054688 195.585938 58.398438 189.851562 58.398438 C 187.574219 58.398438 185.464844 59.136719 183.757812 60.378906 C 180.308594 59.484375 176.757812 59.035156 173.148438 59.035156 C 162.597656 59.035156 152.492188 62.945312 144.699219 70.042969 C 138.121094 76.035156 133.648438 83.871094 131.820312 92.460938 C 130.152344 92.242188 128.464844 92.125 126.757812 92.125 C 105.207031 92.125 87.679688 109.65625 87.679688 131.203125 C 87.679688 149.148438 99.84375 164.308594 116.363281 168.871094 C 117.300781 173.648438 121.503906 177.25 126.554688 177.25 C 132.296875 177.25 136.945312 172.597656 136.945312 166.863281 C 136.945312 161.128906 132.292969 156.472656 126.554688 156.472656 Z M 126.550781 156.46875 " clip-rule="nonzero"/></clipPath><linearGradient x1="-0.00000549869" gradientTransform="matrix(0.373418, 0, 0, 0.373418, 87.679438, 58.399689)" y1="159.139999" x2="301.419975" gradientUnits="userSpaceOnUse" y2="159.139999" id="ab45415a0f"><stop stop-opacity="1" stop-color="rgb(0%, 81.999207%, 96.899414%)" offset="0"/><stop stop-opacity="1" stop-color="rgb(0.131226%, 81.936646%, 96.870422%)" offset="0.015625"/><stop stop-opacity="1" stop-color="rgb(0.395203%, 81.813049%, 96.813965%)" offset="0.03125"/><stop stop-opacity="1" stop-color="rgb(0.65918%, 81.689453%, 96.757507%)" offset="0.046875"/><stop stop-opacity="1" stop-color="rgb(0.923157%, 81.565857%, 96.70105%)" offset="0.0625"/><stop stop-opacity="1" stop-color="rgb(1.187134%, 81.443787%, 96.646118%)" offset="0.078125"/><stop stop-opacity="1" stop-color="rgb(1.451111%, 81.32019%, 96.589661%)" offset="0.09375"/><stop stop-opacity="1" stop-color="rgb(1.715088%, 81.196594%, 96.533203%)" offset="0.109375"/><stop stop-opacity="1" stop-color="rgb(1.979065%, 81.072998%, 96.476746%)" offset="0.125"/><stop stop-opacity="1" stop-color="rgb(2.243042%, 80.949402%, 96.420288%)" offset="0.140625"/><stop stop-opacity="1" stop-color="rgb(2.507019%, 80.825806%, 96.363831%)" offset="0.15625"/><stop stop-opacity="1" stop-color="rgb(2.770996%, 80.702209%, 96.307373%)" offset="0.171875"/><stop stop-opacity="1" stop-color="rgb(3.034973%, 80.578613%, 96.252441%)" offset="0.1875"/><stop stop-opacity="1" stop-color="rgb(3.29895%, 80.455017%, 96.195984%)" offset="0.203125"/><stop stop-opacity="1" stop-color="rgb(3.562927%, 80.332947%, 96.139526%)" offset="0.21875"/><stop stop-opacity="1" stop-color="rgb(3.826904%, 80.209351%, 96.083069%)" offset="0.234375"/><stop stop-opacity="1" stop-color="rgb(4.090881%, 80.085754%, 96.026611%)" offset="0.25"/><stop stop-opacity="1" stop-color="rgb(4.354858%, 79.962158%, 95.970154%)" offset="0.265625"/><stop stop-opacity="1" stop-color="rgb(4.618835%, 79.838562%, 95.913696%)" offset="0.28125"/><stop stop-opacity="1" stop-color="rgb(4.882812%, 79.714966%, 95.857239%)" offset="0.296875"/><stop stop-opacity="1" stop-color="rgb(5.148315%, 79.59137%, 95.802307%)" offset="0.3125"/><stop stop-opacity="1" stop-color="rgb(5.412292%, 79.467773%, 95.74585%)" offset="0.328125"/><stop stop-opacity="1" stop-color="rgb(5.67627%, 79.344177%, 95.689392%)" offset="0.34375"/><stop stop-opacity="1" stop-color="rgb(5.940247%, 79.220581%, 95.632935%)" offset="0.359375"/><stop stop-opacity="1" stop-color="rgb(6.204224%, 79.098511%, 95.576477%)" offset="0.375"/><stop stop-opacity="1" stop-color="rgb(6.468201%, 78.974915%, 95.52002%)" offset="0.390625"/><stop stop-opacity="1" stop-color="rgb(6.732178%, 78.851318%, 95.463562%)" offset="0.40625"/><stop stop-opacity="1" stop-color="rgb(6.996155%, 78.727722%, 95.40863%)" offset="0.421875"/><stop stop-opacity="1" stop-color="rgb(7.260132%, 78.604126%, 95.352173%)" offset="0.4375"/><stop stop-opacity="1" stop-color="rgb(7.524109%, 78.48053%, 95.295715%)" offset="0.453125"/><stop stop-opacity="1" stop-color="rgb(7.788086%, 78.356934%, 95.239258%)" offset="0.46875"/><stop stop-opacity="1" stop-color="rgb(8.052063%, 78.233337%, 95.1828%)" offset="0.484375"/><stop stop-opacity="1" stop-color="rgb(8.31604%, 78.109741%, 95.126343%)" offset="0.5"/><stop stop-opacity="1" stop-color="rgb(8.580017%, 77.987671%, 95.069885%)" offset="0.515625"/><stop stop-opacity="1" stop-color="rgb(8.843994%, 77.864075%, 95.014954%)" offset="0.53125"/><stop stop-opacity="1" stop-color="rgb(9.107971%, 77.740479%, 94.958496%)" offset="0.546875"/><stop stop-opacity="1" stop-color="rgb(9.371948%, 77.616882%, 94.902039%)" offset="0.5625"/><stop stop-opacity="1" stop-color="rgb(9.635925%, 77.493286%, 94.845581%)" offset="0.578125"/><stop stop-opacity="1" stop-color="rgb(9.899902%, 77.36969%, 94.789124%)" offset="0.59375"/><stop stop-opacity="1" stop-color="rgb(10.163879%, 77.246094%, 94.732666%)" offset="0.609375"/><stop stop-opacity="1" stop-color="rgb(10.429382%, 77.122498%, 94.676208%)" offset="0.625"/><stop stop-opacity="1" stop-color="rgb(10.693359%, 76.998901%, 94.621277%)" offset="0.640625"/><stop stop-opacity="1" stop-color="rgb(10.957336%, 76.876831%, 94.564819%)" offset="0.65625"/><stop stop-opacity="1" stop-color="rgb(11.221313%, 76.753235%, 94.508362%)" offset="0.671875"/><stop stop-opacity="1" stop-color="rgb(11.485291%, 76.629639%, 94.451904%)" offset="0.6875"/><stop stop-opacity="1" stop-color="rgb(11.749268%, 76.506042%, 94.395447%)" offset="0.703125"/><stop stop-opacity="1" stop-color="rgb(12.013245%, 76.382446%, 94.338989%)" offset="0.71875"/><stop stop-opacity="1" stop-color="rgb(12.277222%, 76.25885%, 94.282532%)" offset="0.734375"/><stop stop-opacity="1" stop-color="rgb(12.541199%, 76.135254%, 94.226074%)" offset="0.75"/><stop stop-opacity="1" stop-color="rgb(12.805176%, 76.011658%, 94.171143%)" offset="0.765625"/><stop stop-opacity="1" stop-color="rgb(13.069153%, 75.888062%, 94.114685%)" offset="0.78125"/><stop stop-opacity="1" stop-color="rgb(13.33313%, 75.764465%, 94.058228%)" offset="0.796875"/><stop stop-opacity="1" stop-color="rgb(13.597107%, 75.642395%, 94.00177%)" offset="0.8125"/><stop stop-opacity="1" stop-color="rgb(13.861084%, 75.518799%, 93.945312%)" offset="0.828125"/><stop stop-opacity="1" stop-color="rgb(14.125061%, 75.395203%, 93.888855%)" offset="0.84375"/><stop stop-opacity="1" stop-color="rgb(14.389038%, 75.271606%, 93.832397%)" offset="0.859375"/><stop stop-opacity="1" stop-color="rgb(14.653015%, 75.14801%, 93.777466%)" offset="0.875"/><stop stop-opacity="1" stop-color="rgb(14.916992%, 75.024414%, 93.721008%)" offset="0.890625"/><stop stop-opacity="1" stop-color="rgb(15.180969%, 74.900818%, 93.664551%)" offset="0.90625"/><stop stop-opacity="1" stop-color="rgb(15.444946%, 74.777222%, 93.608093%)" offset="0.921875"/><stop stop-opacity="1" stop-color="rgb(15.710449%, 74.653625%, 93.551636%)" offset="0.9375"/><stop stop-opacity="1" stop-color="rgb(15.974426%, 74.531555%, 93.495178%)" offset="0.953125"/><stop stop-opacity="1" stop-color="rgb(16.238403%, 74.407959%, 93.438721%)" offset="0.96875"/><stop stop-opacity="1" stop-color="rgb(16.50238%, 74.284363%, 93.383789%)" offset="0.984375"/><stop stop-opacity="1" stop-color="rgb(16.766357%, 74.160767%, 93.327332%)" offset="1"/></linearGradient></defs><rect x="-37.5" width="450" fill="transparent" y="-37.499999" height="449.999989" fill-opacity="1"/><rect x="-37.5" width="450" fill="transparent" y="-37.499999" height="449.999989" fill-opacity="1"/><g clip-path="url(#e4d807a411)"><g clip-path="url(#8b089ec938)"><path fill="url(#c736dbb9f6)" d="M 141.933594 67.773438 L 141.933594 176.898438 L 268.375 176.898438 L 268.375 67.773438 Z M 141.933594 67.773438 " fill-rule="nonzero"/></g></g><g clip-path="url(#098901b70f)"><g clip-path="url(#beb3c9230d)"><path fill="url(#ab45415a0f)" d="M 87.679688 58.398438 L 87.679688 176.898438 L 200.234375 176.898438 L 200.234375 58.398438 Z M 87.679688 58.398438 " fill-rule="nonzero"/></g></g><g fill="#2bbdee" fill-opacity="1"><g transform="translate(35.504319, 234.642009)"><g><path d="M 2.3125 -31.078125 L 15.625 -31.078125 C 17.519531 -31.078125 19.132812 -30.722656 20.46875 -30.015625 C 21.800781 -29.304688 22.789062 -28.351562 23.4375 -27.15625 C 24.09375 -25.957031 24.421875 -24.632812 24.421875 -23.1875 C 24.421875 -21.4375 23.976562 -20.003906 23.09375 -18.890625 C 22.207031 -17.785156 21.171875 -17.066406 19.984375 -16.734375 L 19.984375 -16.4375 C 20.867188 -16.3125 21.789062 -15.96875 22.75 -15.40625 C 23.71875 -14.84375 24.539062 -14.019531 25.21875 -12.9375 C 25.90625 -11.863281 26.25 -10.554688 26.25 -9.015625 C 26.25 -7.535156 25.914062 -6.097656 25.25 -4.703125 C 24.582031 -3.316406 23.519531 -2.175781 22.0625 -1.28125 C 20.613281 -0.394531 18.8125 0.046875 16.65625 0.046875 L 2.3125 0.046875 Z M 13.546875 -18.421875 C 14.753906 -18.421875 15.785156 -18.703125 16.640625 -19.265625 C 17.503906 -19.828125 17.9375 -20.757812 17.9375 -22.0625 C 17.9375 -23.34375 17.5 -24.253906 16.625 -24.796875 C 15.75 -25.347656 14.722656 -25.625 13.546875 -25.625 L 9.109375 -25.625 L 9.109375 -18.421875 Z M 15.09375 -5.46875 C 16.3125 -5.46875 17.378906 -5.757812 18.296875 -6.34375 C 19.210938 -6.9375 19.671875 -7.972656 19.671875 -9.453125 C 19.671875 -10.910156 19.203125 -11.945312 18.265625 -12.5625 C 17.335938 -13.1875 16.28125 -13.5 15.09375 -13.5 L 9.109375 -13.5 L 9.109375 -5.46875 Z M 15.09375 -5.46875 "/></g></g></g><g fill="#2bbdee" fill-opacity="1"><g transform="translate(63.206662, 234.642009)"><g><path d="M 19.984375 -7.1875 L 10.03125 -7.1875 L 7.8125 0 L 0.796875 0 L 11.859375 -31.078125 L 18.296875 -31.078125 L 29.265625 0 L 22.25 0 Z M 18.296875 -12.484375 L 15.09375 -22.515625 L 14.828125 -22.515625 L 11.71875 -12.484375 Z M 18.296875 -12.484375 "/></g></g></g><g fill="#2bbdee" fill-opacity="1"><g transform="translate(93.084353, 234.642009)"><g><path d="M 2.3125 -31.125 L 14.5625 -31.125 C 17.3125 -31.125 19.738281 -30.507812 21.84375 -29.28125 C 23.945312 -28.050781 25.582031 -26.273438 26.75 -23.953125 C 27.925781 -21.628906 28.515625 -18.851562 28.515625 -15.625 C 28.515625 -12.34375 27.921875 -9.53125 26.734375 -7.1875 C 25.546875 -4.851562 23.894531 -3.078125 21.78125 -1.859375 C 19.664062 -0.648438 17.226562 -0.046875 14.46875 -0.046875 L 2.3125 -0.046875 Z M 13.1875 -6.265625 C 15.613281 -6.265625 17.535156 -6.957031 18.953125 -8.34375 C 20.378906 -9.738281 21.09375 -12.164062 21.09375 -15.625 C 21.09375 -19.09375 20.390625 -21.519531 18.984375 -22.90625 C 17.578125 -24.300781 15.644531 -25 13.1875 -25 L 9.015625 -25 L 9.015625 -6.265625 Z M 13.1875 -6.265625 "/></g></g></g><g fill="#2bbdee" fill-opacity="1"><g transform="translate(123.139634, 234.642009)"><g><path d="M 15.28125 0.40625 C 12.375 0.40625 9.90625 -0.347656 7.875 -1.859375 C 5.851562 -3.367188 4.335938 -5.335938 3.328125 -7.765625 C 2.328125 -10.191406 1.828125 -12.785156 1.828125 -15.546875 C 1.828125 -18.390625 2.347656 -21.035156 3.390625 -23.484375 C 4.441406 -25.941406 6.035156 -27.925781 8.171875 -29.4375 C 10.304688 -30.945312 12.910156 -31.703125 15.984375 -31.703125 C 19.503906 -31.703125 22.394531 -30.71875 24.65625 -28.75 C 26.925781 -26.78125 28.519531 -24.210938 29.4375 -21.046875 L 22.15625 -21.046875 C 21.769531 -22.441406 21.054688 -23.550781 20.015625 -24.375 C 18.984375 -25.207031 17.65625 -25.625 16.03125 -25.625 C 13.6875 -25.625 11.894531 -24.691406 10.65625 -22.828125 C 9.414062 -20.960938 8.796875 -18.472656 8.796875 -15.359375 C 8.796875 -12.109375 9.457031 -9.585938 10.78125 -7.796875 C 12.113281 -6.003906 13.984375 -5.109375 16.390625 -5.109375 C 18.460938 -5.109375 20.035156 -5.742188 21.109375 -7.015625 C 22.191406 -8.285156 22.75 -9.78125 22.78125 -11.5 L 22.78125 -12.078125 L 16.96875 -12.078125 L 16.96875 -17 L 29.578125 -17 L 29.578125 0 L 24.46875 0 L 24.46875 -4.390625 L 24.109375 -4.390625 C 22.367188 -1.191406 19.425781 0.40625 15.28125 0.40625 Z M 15.28125 0.40625 "/></g></g></g><g fill="#2bbdee" fill-opacity="1"><g transform="translate(154.970699, 234.642009)"><g><path d="M 19.984375 -7.1875 L 10.03125 -7.1875 L 7.8125 0 L 0.796875 0 L 11.859375 -31.078125 L 18.296875 -31.078125 L 29.265625 0 L 22.25 0 Z M 18.296875 -12.484375 L 15.09375 -22.515625 L 14.828125 -22.515625 L 11.71875 -12.484375 Z M 18.296875 -12.484375 "/></g></g></g><g fill="#2bbdee" fill-opacity="1"><g transform="translate(184.84839, 234.642009)"><g><path d="M 24.78125 -25.046875 L 16.609375 -25.046875 L 16.609375 0 L 9.71875 0 L 9.71875 -25.046875 L 1.546875 -25.046875 L 1.546875 -31.078125 L 24.78125 -31.078125 Z M 24.78125 -25.046875 "/></g></g></g><g fill="#2bbdee" fill-opacity="1"><g transform="translate(211.218895, 234.642009)"><g><path d="M 9.28125 -25.046875 L 9.28125 -18.421875 L 21.09375 -18.421875 L 21.09375 -13.0625 L 9.28125 -13.0625 L 9.28125 -6.046875 L 23.3125 -6.046875 L 23.3125 0 L 2.3125 0 L 2.3125 -31.078125 L 23.3125 -31.078125 L 23.3125 -25.046875 Z M 9.28125 -25.046875 "/></g></g></g><g fill="#2bbdee" fill-opacity="1"><g transform="translate(236.346347, 234.642009)"><g><path d="M 0.4375 -31.078125 L 7.375 -31.078125 L 12.25 -9.140625 L 12.515625 -9.140625 L 19.09375 -31.078125 L 25.140625 -31.078125 L 31.703125 -9.140625 L 31.96875 -9.140625 L 36.90625 -31.078125 L 43.828125 -31.078125 L 35.921875 0.046875 L 27.75 0.046875 L 22.25 -18.609375 L 21.984375 -18.609375 L 16.46875 0.046875 L 8.296875 0.046875 Z M 0.4375 -31.078125 "/></g></g></g><g fill="#2bbdee" fill-opacity="1"><g transform="translate(280.607959, 234.642009)"><g><path d="M 19.984375 -7.1875 L 10.03125 -7.1875 L 7.8125 0 L 0.796875 0 L 11.859375 -31.078125 L 18.296875 -31.078125 L 29.265625 0 L 22.25 0 Z M 18.296875 -12.484375 L 15.09375 -22.515625 L 14.828125 -22.515625 L 11.71875 -12.484375 Z M 18.296875 -12.484375 "/></g></g></g><g fill="#2bbdee" fill-opacity="1"><g transform="translate(310.48565, 234.642009)"><g><path d="M 11.1875 0 L 11.1875 -10.609375 L 0.984375 -31.078125 L 8.171875 -31.078125 L 14.515625 -17.546875 L 14.75 -17.546875 L 21.09375 -31.078125 L 28.28125 -31.078125 L 18.078125 -10.609375 L 18.078125 0 Z M 11.1875 0 "/></g></g></g><g fill="#009ee2" fill-opacity="1"><g transform="translate(73.038925, 269.949826)"><g><path d="M 5.464844 0 L 8.070312 0 L 8.070312 -5.402344 L 13.328125 -14.902344 L 10.46875 -14.902344 L 6.808594 -7.777344 L 6.769531 -7.777344 L 2.964844 -14.902344 L 0.167969 -14.902344 L 5.464844 -5.402344 Z M 5.464844 0 "/></g></g></g><g fill="#009ee2" fill-opacity="1"><g transform="translate(93.491111, 269.949826)"><g><path d="M 8.808594 0.527344 C 13.726562 0.527344 16.941406 -2.628906 16.941406 -7.441406 C 16.941406 -12.253906 13.726562 -15.429688 8.808594 -15.429688 C 3.886719 -15.429688 0.695312 -12.253906 0.695312 -7.441406 C 0.695312 -2.628906 3.886719 0.527344 8.808594 0.527344 Z M 8.808594 -1.746094 C 5.484375 -1.746094 3.300781 -4.015625 3.300781 -7.441406 C 3.300781 -10.867188 5.484375 -13.136719 8.808594 -13.136719 C 12.128906 -13.136719 14.3125 -10.867188 14.3125 -7.441406 C 14.3125 -4.015625 12.128906 -1.746094 8.808594 -1.746094 Z M 8.808594 -1.746094 "/></g></g></g><g fill="#009ee2" fill-opacity="1"><g transform="translate(118.105224, 269.949826)"><g><path d="M 7.378906 0.527344 C 11.222656 0.527344 13.726562 -1.914062 13.726562 -5.652344 L 13.726562 -14.902344 L 11.097656 -14.902344 L 11.097656 -5.695312 C 11.097656 -3.34375 9.648438 -1.746094 7.378906 -1.746094 C 5.085938 -1.746094 3.65625 -3.488281 3.65625 -5.695312 L 3.65625 -14.902344 L 1.03125 -14.902344 L 1.03125 -5.652344 C 1.03125 -1.914062 3.511719 0.527344 7.378906 0.527344 Z M 7.378906 0.527344 "/></g></g></g><g fill="#009ee2" fill-opacity="1"><g transform="translate(139.839623, 269.949826)"><g><path d="M 12.148438 0.398438 C 13.261719 0.398438 14.25 -0.125 14.925781 -0.925781 L 14.105469 -2.269531 C 13.789062 -1.785156 13.347656 -1.472656 12.925781 -1.472656 C 12.464844 -1.472656 12.171875 -1.828125 12.042969 -2.3125 L 11.433594 -4.539062 C 11.183594 -5.402344 10.71875 -6.074219 9.921875 -6.433594 L 9.921875 -6.453125 C 12.296875 -6.875 13.726562 -8.429688 13.726562 -10.46875 C 13.726562 -13.117188 11.519531 -14.902344 8.238281 -14.902344 L 1.21875 -14.902344 L 1.21875 0 L 3.824219 0 L 3.824219 -5.96875 L 6.894531 -5.96875 C 7.839844 -5.96875 8.554688 -5.253906 8.847656 -4.265625 L 9.628906 -1.597656 C 9.984375 -0.398438 10.824219 0.398438 12.148438 0.398438 Z M 3.824219 -7.964844 L 3.824219 -12.820312 L 8.007812 -12.820312 C 9.859375 -12.820312 11.097656 -11.8125 11.097656 -10.382812 C 11.097656 -8.933594 9.859375 -7.964844 8.007812 -7.964844 Z M 3.824219 -7.964844 "/></g></g></g><g fill="#009ee2" fill-opacity="1"><g transform="translate(161.78424, 269.949826)"><g/></g></g><g fill="#009ee2" fill-opacity="1"><g transform="translate(173.97568, 269.949826)"><g><path d="M 12.148438 0.398438 C 13.261719 0.398438 14.25 -0.125 14.925781 -0.925781 L 14.105469 -2.269531 C 13.789062 -1.785156 13.347656 -1.472656 12.925781 -1.472656 C 12.464844 -1.472656 12.171875 -1.828125 12.042969 -2.3125 L 11.433594 -4.539062 C 11.183594 -5.402344 10.71875 -6.074219 9.921875 -6.433594 L 9.921875 -6.453125 C 12.296875 -6.875 13.726562 -8.429688 13.726562 -10.46875 C 13.726562 -13.117188 11.519531 -14.902344 8.238281 -14.902344 L 1.21875 -14.902344 L 1.21875 0 L 3.824219 0 L 3.824219 -5.96875 L 6.894531 -5.96875 C 7.839844 -5.96875 8.554688 -5.253906 8.847656 -4.265625 L 9.628906 -1.597656 C 9.984375 -0.398438 10.824219 0.398438 12.148438 0.398438 Z M 3.824219 -7.964844 L 3.824219 -12.820312 L 8.007812 -12.820312 C 9.859375 -12.820312 11.097656 -11.8125 11.097656 -10.382812 C 11.097656 -8.933594 9.859375 -7.964844 8.007812 -7.964844 Z M 3.824219 -7.964844 "/></g></g></g><g fill="#009ee2" fill-opacity="1"><g transform="translate(195.92029, 269.949826)"><g><path d="M 1.21875 0 L 11.75 0 L 11.75 -2.1875 L 3.742188 -2.1875 L 3.742188 -6.664062 L 10.699219 -6.664062 L 10.699219 -8.660156 L 3.742188 -8.660156 L 3.742188 -12.71875 L 11.539062 -12.71875 L 11.539062 -14.902344 L 1.21875 -14.902344 Z M 1.21875 0 "/></g></g></g><g fill="#009ee2" fill-opacity="1"><g transform="translate(215.132333, 269.949826)"><g><path d="M 1.21875 0 L 10.761719 0 L 10.761719 -2.269531 L 3.824219 -2.269531 L 3.824219 -14.902344 L 1.21875 -14.902344 Z M 1.21875 0 "/></g></g></g><g fill="#009ee2" fill-opacity="1"><g transform="translate(233.146246, 269.949826)"><g><path d="M 1.21875 0 L 3.824219 0 L 3.824219 -14.902344 L 1.21875 -14.902344 Z M 1.21875 0 "/></g></g></g><g fill="#009ee2" fill-opacity="1"><g transform="translate(245.169514, 269.949826)"><g><path d="M 0.167969 0 L 2.921875 0 L 4.097656 -3.257812 L 10.59375 -3.257812 L 11.75 0 L 14.503906 0 L 8.953125 -14.902344 L 5.757812 -14.902344 Z M 4.667969 -5.296875 L 7.335938 -12.632812 L 7.378906 -12.632812 L 10.003906 -5.296875 Z M 4.667969 -5.296875 "/></g></g></g><g fill="#009ee2" fill-opacity="1"><g transform="translate(266.819831, 269.949826)"><g><path d="M 1.21875 0 L 8.492188 0 C 11.8125 0 13.703125 -1.511719 13.703125 -4.140625 C 13.703125 -6.03125 12.695312 -7.292969 10.867188 -7.652344 L 10.867188 -7.671875 C 12.421875 -8.070312 13.304688 -9.226562 13.304688 -10.847656 C 13.304688 -13.429688 11.519531 -14.902344 8.40625 -14.902344 L 1.21875 -14.902344 Z M 3.824219 -8.574219 L 3.824219 -12.820312 L 8.03125 -12.820312 C 9.730469 -12.820312 10.699219 -12.023438 10.699219 -10.699219 C 10.699219 -9.355469 9.730469 -8.574219 8.03125 -8.574219 Z M 3.824219 -2.082031 L 3.824219 -6.683594 L 8.070312 -6.683594 C 9.984375 -6.683594 11.097656 -5.824219 11.097656 -4.371094 C 11.097656 -2.902344 9.984375 -2.082031 8.070312 -2.082031 Z M 3.824219 -2.082031 "/></g></g></g><g fill="#009ee2" fill-opacity="1"><g transform="translate(288.091815, 269.949826)"><g><path d="M 1.21875 0 L 10.761719 0 L 10.761719 -2.269531 L 3.824219 -2.269531 L 3.824219 -14.902344 L 1.21875 -14.902344 Z M 1.21875 0 "/></g></g></g><g fill="#009ee2" fill-opacity="1"><g transform="translate(306.105715, 269.949826)"><g><path d="M 1.21875 0 L 11.75 0 L 11.75 -2.1875 L 3.742188 -2.1875 L 3.742188 -6.664062 L 10.699219 -6.664062 L 10.699219 -8.660156 L 3.742188 -8.660156 L 3.742188 -12.71875 L 11.539062 -12.71875 L 11.539062 -14.902344 L 1.21875 -14.902344 Z M 1.21875 0 "/></g></g></g><g fill="#009ee2" fill-opacity="1"><g transform="translate(123.343724, 297.976004)"><g><path d="M 7.042969 0.527344 C 10.613281 0.527344 13.03125 -1.410156 13.03125 -4.328125 C 13.03125 -6.535156 11.539062 -7.902344 8.429688 -8.511719 L 6.160156 -8.976562 C 4.433594 -9.332031 3.699219 -9.964844 3.699219 -11.035156 C 3.699219 -12.359375 4.8125 -13.347656 6.578125 -13.347656 C 8.261719 -13.347656 9.523438 -12.253906 9.710938 -10.613281 L 12.128906 -11.160156 C 11.730469 -13.726562 9.5 -15.429688 6.578125 -15.429688 C 3.34375 -15.429688 1.113281 -13.535156 1.113281 -10.742188 C 1.113281 -8.574219 2.460938 -7.316406 5.402344 -6.707031 L 7.652344 -6.222656 C 9.628906 -5.800781 10.46875 -5.128906 10.46875 -3.992188 C 10.46875 -2.605469 9.1875 -1.554688 7.105469 -1.554688 C 4.8125 -1.554688 3.070312 -2.984375 2.902344 -5.042969 L 0.441406 -4.582031 C 0.777344 -1.449219 3.488281 0.527344 7.042969 0.527344 Z M 7.042969 0.527344 "/></g></g></g><g fill="#009ee2" fill-opacity="1"><g transform="translate(143.732859, 297.976004)"><g><path d="M 5.003906 0 L 7.609375 0 L 7.609375 -12.613281 L 12.339844 -12.613281 L 12.339844 -14.902344 L 0.253906 -14.902344 L 0.253906 -12.613281 L 5.003906 -12.613281 Z M 5.003906 0 "/></g></g></g><g fill="#009ee2" fill-opacity="1"><g transform="translate(163.32326, 297.976004)"><g><path d="M 8.808594 0.527344 C 13.726562 0.527344 16.941406 -2.628906 16.941406 -7.441406 C 16.941406 -12.253906 13.726562 -15.429688 8.808594 -15.429688 C 3.886719 -15.429688 0.695312 -12.253906 0.695312 -7.441406 C 0.695312 -2.628906 3.886719 0.527344 8.808594 0.527344 Z M 8.808594 -1.746094 C 5.484375 -1.746094 3.300781 -4.015625 3.300781 -7.441406 C 3.300781 -10.867188 5.484375 -13.136719 8.808594 -13.136719 C 12.128906 -13.136719 14.3125 -10.867188 14.3125 -7.441406 C 14.3125 -4.015625 12.128906 -1.746094 8.808594 -1.746094 Z M 8.808594 -1.746094 "/></g></g></g><g fill="#009ee2" fill-opacity="1"><g transform="translate(187.937371, 297.976004)"><g><path d="M 12.148438 0.398438 C 13.261719 0.398438 14.25 -0.125 14.925781 -0.925781 L 14.105469 -2.269531 C 13.789062 -1.785156 13.347656 -1.472656 12.925781 -1.472656 C 12.464844 -1.472656 12.171875 -1.828125 12.042969 -2.3125 L 11.433594 -4.539062 C 11.183594 -5.402344 10.71875 -6.074219 9.921875 -6.433594 L 9.921875 -6.453125 C 12.296875 -6.875 13.726562 -8.429688 13.726562 -10.46875 C 13.726562 -13.117188 11.519531 -14.902344 8.238281 -14.902344 L 1.21875 -14.902344 L 1.21875 0 L 3.824219 0 L 3.824219 -5.96875 L 6.894531 -5.96875 C 7.839844 -5.96875 8.554688 -5.253906 8.847656 -4.265625 L 9.628906 -1.597656 C 9.984375 -0.398438 10.824219 0.398438 12.148438 0.398438 Z M 3.824219 -7.964844 L 3.824219 -12.820312 L 8.007812 -12.820312 C 9.859375 -12.820312 11.097656 -11.8125 11.097656 -10.382812 C 11.097656 -8.933594 9.859375 -7.964844 8.007812 -7.964844 Z M 3.824219 -7.964844 "/></g></g></g><g fill="#009ee2" fill-opacity="1"><g transform="translate(209.881988, 297.976004)"><g><path d="M 0.167969 0 L 2.921875 0 L 4.097656 -3.257812 L 10.59375 -3.257812 L 11.75 0 L 14.503906 0 L 8.953125 -14.902344 L 5.757812 -14.902344 Z M 4.667969 -5.296875 L 7.335938 -12.632812 L 7.378906 -12.632812 L 10.003906 -5.296875 Z M 4.667969 -5.296875 "/></g></g></g><g fill="#009ee2" fill-opacity="1"><g transform="translate(231.532305, 297.976004)"><g><path d="M 8.238281 0.503906 C 10.886719 0.503906 13.054688 -0.757812 14.1875 -2.835938 L 14.210938 -2.835938 L 14.460938 0 L 16.480469 0 L 16.480469 -8.324219 L 6.496094 -8.324219 L 6.496094 -6.453125 L 13.894531 -6.453125 C 13.851562 -3.71875 11.625 -1.703125 8.765625 -1.703125 C 5.570312 -1.703125 3.300781 -4.097656 3.300781 -7.441406 C 3.300781 -10.78125 5.421875 -13.136719 8.40625 -13.136719 C 10.320312 -13.136719 12.003906 -11.898438 12.589844 -10.132812 L 15.027344 -10.742188 C 14.1875 -13.496094 11.539062 -15.429688 8.429688 -15.429688 C 3.886719 -15.429688 0.695312 -12.105469 0.695312 -7.441406 C 0.695312 -2.796875 3.824219 0.503906 8.238281 0.503906 Z M 8.238281 0.503906 "/></g></g></g><g fill="#009ee2" fill-opacity="1"><g transform="translate(255.831131, 297.976004)"><g><path d="M 1.21875 0 L 11.75 0 L 11.75 -2.1875 L 3.742188 -2.1875 L 3.742188 -6.664062 L 10.699219 -6.664062 L 10.699219 -8.660156 L 3.742188 -8.660156 L 3.742188 -12.71875 L 11.539062 -12.71875 L 11.539062 -14.902344 L 1.21875 -14.902344 Z M 1.21875 0 "/></g></g></g></svg>